<svg fill="#fff" stroke="#1277e2" width="400" height="400" viewBox="136 136 528 528" xmlns="http://www.w3.org/2000/svg" stroke-width="0"><g xmlns="http://www.w3.org/2000/svg" fill="#fff" stroke="none" stroke-linecap="round" stroke-linejoin="round"><path d="M400 173.29c-125.45 0-226.71 101.27-226.71 226.71S274.56 626.71 400 626.71 626.71 525.44 626.71 400C626.706 274.55 525.44 173.29 400 173.29zm0 415.64c-104.29 0-188.93-84.641-188.93-188.93 0-104.29 84.641-188.93 188.93-188.93 104.29 0 188.93 84.641 188.93 188.93 0 104.29-84.641 188.93-188.93 188.93z"/><path d="M475.57 374.81c-14.105 0-25.191-11.082-25.191-25.191h-25.191c0 27.711 22.672 50.383 50.383 50.383 27.711 0 50.383-22.672 50.383-50.383h-25.191c0 14.105-11.086 25.191-25.191 25.191zM400 450.38c-41.816 0-75.57 33.754-75.57 75.57h25.191c0-27.711 22.672-50.383 50.383-50.383 27.711 0 50.383 22.672 50.383 50.383h25.191c-.008-41.816-33.762-75.57-75.578-75.57zM308.81 397.48c5.04 1.512 10.078 2.52 15.617 2.52 27.711 0 50.383-22.672 50.383-50.383h-25.191c0 14.105-11.082 25.19-25.191 25.19-14.105 0-25.191-11.082-25.191-25.19h-25.191c0 8.062 2.016 16.12 5.543 23.176-11.082 17.129-30.73 49.879-30.73 64.992 0 20.656 17.129 37.785 37.785 37.785s37.785-17.13 37.785-37.785c0-9.07-7.555-25.191-15.617-40.305zm-22.168 52.898c-7.055 0-12.594-5.543-12.594-12.09.504-4.535 5.543-15.617 12.594-28.215 7.055 12.594 12.09 23.68 12.594 28.215.004 6.547-5.54 12.09-12.594 12.09z"/></g><g xmlns="http://www.w3.org/2000/svg" fill="#fff" stroke="none"><path d="M400 173.29c-125.45 0-226.71 101.27-226.71 226.71S274.56 626.71 400 626.71 626.71 525.44 626.71 400C626.706 274.55 525.44 173.29 400 173.29zm0 415.64c-104.29 0-188.93-84.641-188.93-188.93 0-104.29 84.641-188.93 188.93-188.93 104.29 0 188.93 84.641 188.93 188.93 0 104.29-84.641 188.93-188.93 188.93z"/><path d="M475.57 374.81c-14.105 0-25.191-11.082-25.191-25.191h-25.191c0 27.711 22.672 50.383 50.383 50.383 27.711 0 50.383-22.672 50.383-50.383h-25.191c0 14.105-11.086 25.191-25.191 25.191zM400 450.38c-41.816 0-75.57 33.754-75.57 75.57h25.191c0-27.711 22.672-50.383 50.383-50.383 27.711 0 50.383 22.672 50.383 50.383h25.191c-.008-41.816-33.762-75.57-75.578-75.57zM308.81 397.48c5.04 1.512 10.078 2.52 15.617 2.52 27.711 0 50.383-22.672 50.383-50.383h-25.191c0 14.105-11.082 25.19-25.191 25.19-14.105 0-25.191-11.082-25.191-25.19h-25.191c0 8.062 2.016 16.12 5.543 23.176-11.082 17.129-30.73 49.879-30.73 64.992 0 20.656 17.129 37.785 37.785 37.785s37.785-17.13 37.785-37.785c0-9.07-7.555-25.191-15.617-40.305zm-22.168 52.898c-7.055 0-12.594-5.543-12.594-12.09.504-4.535 5.543-15.617 12.594-28.215 7.055 12.594 12.09 23.68 12.594 28.215.004 6.547-5.54 12.09-12.594 12.09z"/></g></svg>